<svg width="260" height="406" fill="none" xmlns="http://www.w3.org/2000/svg"><path fill-rule="evenodd" clip-rule="evenodd" d="M.946 350.092C.147 347.551 0 344.863 0 342.2V160.67c0-2.587.161-5.186.817-7.688 1.704-6.508 4.492-9.686 10.43-13.419l35.725-21.857c15.02-9.426 23.828-17.137 34.138-32.905 4.264-6.521 6.218-14.248 6.218-22.04V16.42c0-4.854.093-10.277 3.58-13.653C92.302 1.418 93.996.628 96.14.258c6.326-1.092 12.53 1.986 17.97 5.396l133.34 83.58c3.497 2.192 7.339 5.31 9.664 8.721 2.719 3.99 2.886 8.307 2.886 13.135v80.133c-1.162 9.119-2.795 12.532-7.277 15.895l-66.82 42.388c-8.528 5.842-11.577 9.703-11.247 18.544v70.52c0 2.434-.23 4.862-.687 7.253l-.553 2.89a25.492 25.492 0 0 1-11.548 16.845l-56.016 34.954c-13.455 6.372-20.782 8.206-32.417 0L16.54 366.734l-.07-.047c-8.06-5.406-13.06-8.76-15.523-16.595Zm89.507-229.354a27.785 27.785 0 0 0-3.22 12.593l-2.076 145.767c-.095 6.677.562 13.941 5.278 18.669 4.722 4.734 10.256 3.665 19.387-1.237l51.934-33.447c7.421-5.32 9.838-9.53 10.585-19.538v-83.128c0-8.291-3.335-16.172-10.585-20.192l-44.988-27.155c-7.33-4.006-12.089-4.659-18.473-1.07-3.477 1.954-5.978 5.213-7.842 8.738Z" fill="url(#a)"/><defs><linearGradient id="a" x1="130" y1="0" x2="130" y2="406" gradientUnits="userSpaceOnUse"><stop offset=".721" stop-color="#CCC"/></linearGradient></defs></svg>